<svg width="200" height="200" viewBox="0 0 200 200" fill="none" xmlns="http://www.w3.org/2000/svg">
<path d="M73.9752 126.081L126.08 126.081L126.08 73.9762L73.9752 73.9762L73.9752 126.081Z" stroke="#E20014" stroke-width="1.05019" stroke-miterlimit="10"/>
<path d="M73.3387 74.0993L74.0933 74.0993L125.894 74.0993L125.891 73.8218C125.891 45.1123 102.744 21.8155 74.0933 21.5567L74.0933 21.5442L73.8127 21.5442C73.7815 21.5442 73.7472 21.5473 73.7098 21.5473C73.6786 21.5473 73.6443 21.5442 73.61 21.5473L73.3356 21.5473L73.3356 21.5598C44.6854 21.8186 21.5382 45.1155 21.5382 73.825L21.5351 74.1025L73.3387 74.0993Z" fill="white"/>
<path d="M126.653 125.897L125.898 125.897L74.0976 125.897L74.1007 126.175C74.1007 154.884 97.2479 178.181 125.898 178.44L125.898 178.452L126.179 178.452C126.21 178.452 126.244 178.449 126.282 178.449C126.313 178.449 126.347 178.452 126.385 178.452L126.659 178.452L126.659 178.44C155.309 178.181 178.456 154.884 178.456 126.175L178.456 125.9L126.653 125.897Z" fill="white"/>
<path d="M125.892 73.3444L125.892 74.0989L125.892 125.899L126.169 125.896C154.879 125.896 178.176 102.749 178.434 74.0989L178.447 74.0989L178.447 73.8183C178.447 73.7871 178.444 73.7528 178.444 73.7154C178.444 73.6842 178.447 73.6499 178.447 73.6125L178.447 73.3382L178.434 73.3382C178.176 44.6879 154.879 21.5407 126.169 21.5407L125.892 21.5376L125.892 73.3444Z" fill="white"/>
<path d="M74.0965 126.652L74.0965 125.897L74.0965 74.0965L73.819 74.0997C45.1094 74.0997 21.8126 97.2469 21.5538 125.897L21.5413 125.897L21.5445 126.175C21.5445 126.206 21.5476 126.24 21.5476 126.278C21.5476 126.309 21.5445 126.343 21.5476 126.377L21.5476 126.652L21.5601 126.652C21.8189 155.302 45.1157 178.449 73.8252 178.449L74.1027 178.452L74.0965 126.652Z" fill="white"/>
</svg>
